<svg id="login_logo" width="56.8" height="71.6" viewBox="0 0 96 120" xmlns="http://www.w3.org/2000/svg">
  <path
    d="M11.1569 6.26921L1.5049 12.0643L0.504608 66.2926L24.3186 80.0956C38.8141 72.1229 43.7454 68.8214 44.6404 67.6097C45.8162 66.0117 43.1312 63.7287 34.848 59.2682L23.4412 53.1219C23.4412 12.2926 22.8445 0.438965 22.125 0.438965C21.4055 0.456526 16.4567 3.07311 11.1569 6.26921ZM48.3081 26.1658L48.0274 39.9512L69.9461 52.3492L70.8762 80.3414C35.4447 100.765 25.161 107.069 25.161 107.561C25.161 108.053 29.7237 110.985 35.2692 114.094C40.8323 117.202 46.1672 119.801 47.1324 119.854C48.0975 119.906 59.1534 114.181 71.701 107.122L94.5147 94.2848L95.1816 39.4946C67.4541 23.6721 56.9774 17.5785 54.0116 15.7346L48.6065 12.3804L48.3081 26.1658Z"
    fill="#FCFCFC" />
</svg>