<svg width="30.2" height="37.4" viewBox="0 0 55 68" fill="none" xmlns="http://www.w3.org/2000/svg">
<path d="M6.99999 3.32L1.49999 6.62L0.929993 37.5L14.5 45.36C22.76 40.82 25.57 38.94 26.08 38.25C26.75 37.34 25.22 36.04 20.5 33.5L14 30C14 6.75 13.66 0 13.25 0C12.84 0.01 10.02 1.5 6.99999 3.32ZM28.17 14.65L28.01 22.5L40.5 29.56L41.03 45.5C20.84 57.13 14.98 60.72 14.98 61C14.98 61.28 17.58 62.95 20.74 64.72C23.91 66.49 26.95 67.97 27.5 68C28.05 68.03 34.35 64.77 41.5 60.75L54.5 53.44L54.88 22.24C39.08 13.23 33.11 9.76 31.42 8.71L28.34 6.8L28.17 14.65Z" fill="#FCFCFC"/>
</svg>
